<svg xmlns="http://www.w3.org/2000/svg" xmlns:xlink="http://www.w3.org/1999/xlink" width="500" zoomAndPan="magnify" viewBox="0 0 375 374.999991" height="500" preserveAspectRatio="xMidYMid meet" version="1.0"><defs><g/><clipPath id="17c7c2c0de"><path d="M 281 163 L 312 163 L 312 208.527344 L 281 208.527344 Z M 281 163 " clip-rule="nonzero"/></clipPath><clipPath id="a2f43fcb8a"><path d="M 224 127 L 298 127 L 298 208.527344 L 224 208.527344 Z M 224 127 " clip-rule="nonzero"/></clipPath><clipPath id="b41b2d049b"><rect x="0" width="166" y="0" height="57"/></clipPath></defs><rect x="-37.5" width="450" fill="#ffffff" y="-37.499999" height="449.999989" fill-opacity="1"/><rect x="-37.5" width="450" fill="#0a0a0a" y="-37.499999" height="449.999989" fill-opacity="1"/><g clip-path="url(#17c7c2c0de)"><path fill="#e7e3dd" d="M 310.132812 197.417969 L 290.589844 163.574219 L 281.972656 178.515625 L 297.1875 204.878906 C 298.5625 207.265625 301.074219 208.621094 303.660156 208.621094 C 304.925781 208.621094 306.210938 208.289062 307.382812 207.613281 C 310.976562 205.539062 312.1875 200.992188 310.132812 197.417969 Z M 310.132812 197.417969 " fill-opacity="1" fill-rule="nonzero"/></g><g clip-path="url(#a2f43fcb8a)"><path fill="#e7e3dd" d="M 296.417969 144.984375 L 288.132812 159.339844 L 279.496094 174.28125 L 266.152344 197.398438 C 262.152344 204.332031 254.691406 208.640625 246.699219 208.640625 C 238.578125 208.640625 231.296875 204.441406 227.226562 197.398438 C 223.160156 190.378906 223.160156 181.964844 227.226562 174.921875 L 250.585938 134.5 C 253.003906 130.300781 257.351562 127.789062 262.191406 127.789062 C 267.03125 127.789062 271.375 130.300781 273.8125 134.5 L 274.65625 135.964844 L 277.078125 140.144531 L 268.441406 155.085938 L 262.191406 144.269531 L 240.191406 182.386719 C 238.230469 185.777344 239.53125 188.785156 240.191406 189.921875 C 240.851562 191.058594 242.792969 193.695312 246.71875 193.695312 C 249.394531 193.695312 251.90625 192.25 253.226562 189.921875 L 270.878906 159.339844 L 279.515625 144.398438 L 283.476562 137.523438 C 285.546875 133.949219 290.113281 132.71875 293.6875 134.792969 C 297.261719 136.84375 298.492188 141.410156 296.417969 144.984375 Z M 296.417969 144.984375 " fill-opacity="1" fill-rule="nonzero"/></g><path fill="#e7e3dd" d="M 292.789062 127.238281 C 296.785156 136.238281 310.113281 130.722656 306.59375 121.519531 C 302.578125 112.535156 289.25 118.054688 292.789062 127.238281 Z M 292.789062 127.238281 " fill-opacity="1" fill-rule="nonzero"/><g transform="matrix(1, 0, 0, 1, 54, 159)"><g clip-path="url(#b41b2d049b)"><g fill="#e7e3dd" fill-opacity="1"><g transform="translate(0.634696, 45.799281)"><g><path d="M 2.34375 -6.765625 L 2.34375 -30.828125 C 2.34375 -33.054688 2.921875 -34.738281 4.078125 -35.875 C 5.242188 -37.019531 6.925781 -37.59375 9.125 -37.59375 L 15.328125 -37.59375 C 17.515625 -37.59375 19.1875 -37.019531 20.34375 -35.875 C 21.507812 -34.738281 22.09375 -33.054688 22.09375 -30.828125 L 22.09375 -25.9375 C 22.09375 -25.4375 21.84375 -25.1875 21.34375 -25.1875 L 16.640625 -25.1875 C 16.140625 -25.1875 15.890625 -25.4375 15.890625 -25.9375 L 15.890625 -29.515625 C 15.890625 -30.765625 15.257812 -31.390625 14 -31.390625 L 10.625 -31.390625 C 9.363281 -31.390625 8.734375 -30.765625 8.734375 -29.515625 L 8.734375 -8.078125 C 8.734375 -6.828125 9.363281 -6.203125 10.625 -6.203125 L 14 -6.203125 C 15.257812 -6.203125 15.890625 -6.828125 15.890625 -8.078125 L 15.890625 -14.375 L 13.4375 -14.375 C 12.9375 -14.375 12.6875 -14.628906 12.6875 -15.140625 L 12.6875 -19.828125 C 12.6875 -20.335938 12.9375 -20.59375 13.4375 -20.59375 L 21.34375 -20.59375 C 21.84375 -20.59375 22.09375 -20.335938 22.09375 -19.828125 L 22.09375 -6.765625 C 22.09375 -4.578125 21.507812 -2.898438 20.34375 -1.734375 C 19.1875 -0.578125 17.515625 0 15.328125 0 L 9.125 0 C 6.925781 0 5.242188 -0.578125 4.078125 -1.734375 C 2.921875 -2.898438 2.34375 -4.578125 2.34375 -6.765625 Z M 2.34375 -6.765625 "/></g></g></g><g fill="#e7e3dd" fill-opacity="1"><g transform="translate(22.674592, 45.799281)"><g><path d="M 21.671875 -30.828125 L 21.671875 -19.359375 C 21.671875 -16.222656 20.523438 -14.15625 18.234375 -13.15625 L 21.484375 -0.84375 C 21.640625 -0.28125 21.421875 0 20.828125 0 L 15.9375 0 C 15.5 0 15.234375 -0.21875 15.140625 -0.65625 L 11.984375 -12.59375 L 8.734375 -12.59375 L 8.734375 -0.75 C 8.734375 -0.25 8.484375 0 7.984375 0 L 3.109375 0 C 2.597656 0 2.34375 -0.25 2.34375 -0.75 L 2.34375 -36.84375 C 2.34375 -37.34375 2.597656 -37.59375 3.109375 -37.59375 L 14.90625 -37.59375 C 17.125 -37.59375 18.804688 -37.019531 19.953125 -35.875 C 21.097656 -34.738281 21.671875 -33.054688 21.671875 -30.828125 Z M 8.734375 -18.796875 L 13.390625 -18.796875 C 14.648438 -18.796875 15.28125 -19.425781 15.28125 -20.6875 L 15.28125 -29.515625 C 15.28125 -30.765625 14.648438 -31.390625 13.390625 -31.390625 L 8.734375 -31.390625 Z M 8.734375 -18.796875 "/></g></g></g><g fill="#e7e3dd" fill-opacity="1"><g transform="translate(44.291538, 45.799281)"><g><path d="M 3.109375 -37.59375 L 7.984375 -37.59375 C 8.484375 -37.59375 8.734375 -37.34375 8.734375 -36.84375 L 8.734375 -0.75 C 8.734375 -0.25 8.484375 0 7.984375 0 L 3.109375 0 C 2.597656 0 2.34375 -0.25 2.34375 -0.75 L 2.34375 -36.84375 C 2.34375 -37.34375 2.597656 -37.59375 3.109375 -37.59375 Z M 3.109375 -37.59375 "/></g></g></g><g fill="#e7e3dd" fill-opacity="1"><g transform="translate(52.984891, 45.799281)"><g><path d="M 2.34375 -0.75 L 2.34375 -36.84375 C 2.34375 -37.34375 2.597656 -37.59375 3.109375 -37.59375 L 14.375 -37.59375 C 16.601562 -37.59375 18.289062 -37.015625 19.4375 -35.859375 C 20.582031 -34.703125 21.15625 -33.007812 21.15625 -30.78125 L 21.15625 -6.765625 C 21.15625 -4.578125 20.582031 -2.898438 19.4375 -1.734375 C 18.289062 -0.578125 16.601562 0 14.375 0 L 3.109375 0 C 2.597656 0 2.34375 -0.25 2.34375 -0.75 Z M 8.734375 -6.203125 L 13.0625 -6.203125 C 14.320312 -6.203125 14.953125 -6.828125 14.953125 -8.078125 L 14.953125 -29.46875 C 14.953125 -30.75 14.320312 -31.390625 13.0625 -31.390625 L 8.734375 -31.390625 Z M 8.734375 -6.203125 "/></g></g></g><g fill="#e7e3dd" fill-opacity="1"><g transform="translate(74.084892, 45.799281)"><g><path d="M 22 -37.59375 L 28.203125 -37.59375 C 28.828125 -37.59375 29.140625 -37.28125 29.140625 -36.65625 L 29.140625 -0.9375 C 29.140625 -0.3125 28.828125 0 28.203125 0 L 23.828125 0 C 23.203125 0 22.890625 -0.3125 22.890625 -0.9375 L 22.890625 -22.09375 L 22.5625 -22.09375 L 17.90625 -0.84375 C 17.78125 -0.28125 17.4375 0 16.875 0 L 14.5625 0 C 14.03125 0 13.6875 -0.28125 13.53125 -0.84375 L 8.890625 -22.09375 L 8.546875 -22.09375 L 8.546875 -0.9375 C 8.546875 -0.3125 8.234375 0 7.609375 0 L 3.296875 0 C 2.660156 0 2.34375 -0.3125 2.34375 -0.9375 L 2.34375 -36.65625 C 2.34375 -37.28125 2.660156 -37.59375 3.296875 -37.59375 L 9.5 -37.59375 C 10.0625 -37.59375 10.40625 -37.3125 10.53125 -36.75 L 15.75 -13.34375 L 20.96875 -36.75 C 21.125 -37.3125 21.46875 -37.59375 22 -37.59375 Z M 22 -37.59375 "/></g></g></g><g fill="#e7e3dd" fill-opacity="1"><g transform="translate(103.174025, 45.799281)"><g><path d="M 3.109375 -37.59375 L 7.984375 -37.59375 C 8.484375 -37.59375 8.734375 -37.34375 8.734375 -36.84375 L 8.734375 -0.75 C 8.734375 -0.25 8.484375 0 7.984375 0 L 3.109375 0 C 2.597656 0 2.34375 -0.25 2.34375 -0.75 L 2.34375 -36.84375 C 2.34375 -37.34375 2.597656 -37.59375 3.109375 -37.59375 Z M 3.109375 -37.59375 "/></g></g></g><g fill="#e7e3dd" fill-opacity="1"><g transform="translate(111.867378, 45.799281)"><g><path d="M 16.78125 -37.59375 L 21.671875 -37.59375 C 22.171875 -37.59375 22.421875 -37.34375 22.421875 -36.84375 L 22.421875 -0.75 C 22.421875 -0.25 22.171875 0 21.671875 0 L 17.015625 0 C 16.578125 0 16.296875 -0.203125 16.171875 -0.609375 L 8.984375 -20.6875 L 8.734375 -20.6875 L 8.734375 -0.75 C 8.734375 -0.25 8.484375 0 7.984375 0 L 3.109375 0 C 2.597656 0 2.34375 -0.25 2.34375 -0.75 L 2.34375 -36.84375 C 2.34375 -37.34375 2.597656 -37.59375 3.109375 -37.59375 L 7.75 -37.59375 C 8.1875 -37.59375 8.46875 -37.390625 8.59375 -36.984375 L 15.75 -17.015625 L 16.03125 -17.015625 L 16.03125 -36.84375 C 16.03125 -37.34375 16.28125 -37.59375 16.78125 -37.59375 Z M 16.78125 -37.59375 "/></g></g></g><g fill="#e7e3dd" fill-opacity="1"><g transform="translate(134.236254, 45.799281)"><g><path d="M 2.34375 -0.75 L 2.34375 -36.84375 C 2.34375 -37.34375 2.597656 -37.59375 3.109375 -37.59375 L 14.375 -37.59375 C 16.601562 -37.59375 18.289062 -37.015625 19.4375 -35.859375 C 20.582031 -34.703125 21.15625 -33.007812 21.15625 -30.78125 L 21.15625 -6.765625 C 21.15625 -4.578125 20.582031 -2.898438 19.4375 -1.734375 C 18.289062 -0.578125 16.601562 0 14.375 0 L 3.109375 0 C 2.597656 0 2.34375 -0.25 2.34375 -0.75 Z M 8.734375 -6.203125 L 13.0625 -6.203125 C 14.320312 -6.203125 14.953125 -6.828125 14.953125 -8.078125 L 14.953125 -29.46875 C 14.953125 -30.75 14.320312 -31.390625 13.0625 -31.390625 L 8.734375 -31.390625 Z M 8.734375 -6.203125 "/></g></g></g><g fill="#e7e3dd" fill-opacity="1"><g transform="translate(155.336255, 45.799281)"><g><path d="M 2.34375 -0.9375 L 2.34375 -5.265625 C 2.34375 -5.890625 2.660156 -6.203125 3.296875 -6.203125 L 7.5625 -6.203125 C 8.1875 -6.203125 8.5 -5.890625 8.5 -5.265625 L 8.5 -0.9375 C 8.5 -0.3125 8.1875 0 7.5625 0 L 3.296875 0 C 2.660156 0 2.34375 -0.3125 2.34375 -0.9375 Z M 2.34375 -0.9375 "/></g></g></g></g></g></svg>