<svg xmlns="http://www.w3.org/2000/svg" xmlns:xlink="http://www.w3.org/1999/xlink" width="3780" zoomAndPan="magnify" viewBox="0 0 2835 1417.499962" height="1890" preserveAspectRatio="xMidYMid meet" version="1.0"><defs><g/><clipPath id="725a27bfe6"><path d="M 0.5 0 L 2834.5 0 L 2834.5 1417 L 0.5 1417 Z M 0.5 0 " clip-rule="nonzero"/></clipPath><clipPath id="1909a4ecc5"><path d="M 0.5 0 L 2834.5 0 L 2834.5 1417 L 0.5 1417 Z M 0.5 0 " clip-rule="nonzero"/></clipPath><clipPath id="d782f0df89"><path d="M 1539.273438 0 L 2834.5 0 L 2834.5 1417 L 1539.273438 1417 Z M 1539.273438 0 " clip-rule="nonzero"/></clipPath><clipPath id="0343e70132"><path d="M 2604 618 L 2716 618 L 2716 788.054688 L 2604 788.054688 Z M 2604 618 " clip-rule="nonzero"/></clipPath><clipPath id="c3a0d0c231"><path d="M 2386 482 L 2664 482 L 2664 788.054688 L 2386 788.054688 Z M 2386 482 " clip-rule="nonzero"/></clipPath><clipPath id="d41d753509"><rect x="0" width="2835" y="0" height="1417"/></clipPath></defs><g clip-path="url(#725a27bfe6)"><path fill="#ffffff" d="M 0.5 0 L 2834.5 0 L 2834.5 1417 L 0.5 1417 Z M 0.5 0 " fill-opacity="1" fill-rule="nonzero"/><g transform="matrix(1, 0, 0, 1, 0, 0)"><g clip-path="url(#d41d753509)"><g clip-path="url(#1909a4ecc5)"><path fill="#efece0" d="M 0.5 0 L 2834.855469 0 L 2834.855469 1417.175781 L 0.5 1417.175781 Z M 0.5 0 " fill-opacity="1" fill-rule="nonzero"/></g><g clip-path="url(#d782f0df89)"><path fill="#ffffff" d="M 1397.554688 -141.71875 L 3098.167969 -141.71875 L 3098.167969 1558.894531 L 1397.554688 1558.894531 Z M 1397.554688 -141.71875 " fill-opacity="1" fill-rule="nonzero"/><path fill="#0a0a0a" d="M 1397.554688 -141.71875 L 3098.167969 -141.71875 L 3098.167969 1558.894531 L 1397.554688 1558.894531 Z M 1397.554688 -141.71875 " fill-opacity="1" fill-rule="nonzero"/></g><g clip-path="url(#0343e70132)"><path fill="#e7e3dd" d="M 2711.308594 746.070312 L 2637.453125 618.167969 L 2604.886719 674.636719 L 2662.386719 774.265625 C 2667.582031 783.285156 2677.074219 788.40625 2686.847656 788.40625 C 2691.628906 788.40625 2696.488281 787.152344 2700.914062 784.597656 C 2714.496094 776.761719 2719.074219 759.578125 2711.308594 746.070312 Z M 2711.308594 746.070312 " fill-opacity="1" fill-rule="nonzero"/></g><g clip-path="url(#c3a0d0c231)"><path fill="#e7e3dd" d="M 2659.476562 547.917969 L 2628.167969 602.167969 L 2595.527344 658.632812 L 2545.101562 745.996094 C 2529.984375 772.199219 2501.789062 788.480469 2471.585938 788.480469 C 2440.894531 788.480469 2413.375 772.613281 2397.996094 745.996094 C 2382.625 719.46875 2382.625 687.671875 2397.996094 661.054688 L 2486.273438 508.292969 C 2495.410156 492.425781 2511.839844 482.933594 2530.132812 482.933594 C 2548.421875 482.933594 2564.835938 492.425781 2574.050781 508.292969 L 2577.238281 513.832031 L 2586.390625 529.625 L 2553.75 586.089844 L 2530.132812 545.214844 L 2446.988281 689.265625 C 2439.578125 702.078125 2444.496094 713.445312 2446.988281 717.742188 C 2449.484375 722.035156 2456.820312 732 2471.65625 732 C 2481.769531 732 2491.261719 726.539062 2496.25 717.742188 L 2562.960938 602.167969 L 2595.601562 545.703125 L 2610.570312 519.71875 C 2618.394531 506.210938 2635.652344 501.5625 2649.160156 509.402344 C 2662.667969 517.152344 2667.316406 534.410156 2659.476562 547.917969 Z M 2659.476562 547.917969 " fill-opacity="1" fill-rule="nonzero"/></g><path fill="#e7e3dd" d="M 2645.765625 480.851562 C 2660.867188 514.863281 2711.234375 494.019531 2697.933594 459.238281 C 2682.757812 425.285156 2632.390625 446.144531 2645.765625 480.851562 Z M 2645.765625 480.851562 " fill-opacity="1" fill-rule="nonzero"/><path fill="#e7e3dd" d="M 1754.601562 748.398438 L 1754.601562 657.460938 C 1754.601562 649.046875 1756.789062 642.683594 1761.15625 638.386719 C 1765.554688 634.0625 1771.917969 631.894531 1780.230469 631.894531 L 1803.671875 631.894531 C 1811.941406 631.894531 1818.257812 634.0625 1822.628906 638.386719 C 1827.027344 642.683594 1829.242188 649.046875 1829.242188 657.460938 L 1829.242188 675.945312 C 1829.242188 677.832031 1828.296875 678.777344 1826.40625 678.777344 L 1808.632812 678.777344 C 1806.742188 678.777344 1805.796875 677.832031 1805.796875 675.945312 L 1805.796875 662.421875 C 1805.796875 657.699219 1803.40625 655.335938 1798.652344 655.335938 L 1785.898438 655.335938 C 1781.128906 655.335938 1778.753906 657.699219 1778.753906 662.421875 L 1778.753906 743.4375 C 1778.753906 748.160156 1781.128906 750.523438 1785.898438 750.523438 L 1798.652344 750.523438 C 1803.40625 750.523438 1805.796875 748.160156 1805.796875 743.4375 L 1805.796875 719.640625 L 1796.527344 719.640625 C 1794.636719 719.640625 1793.691406 718.679688 1793.691406 716.746094 L 1793.691406 699.03125 C 1793.691406 697.113281 1794.636719 696.136719 1796.527344 696.136719 L 1826.40625 696.136719 C 1828.296875 696.136719 1829.242188 697.113281 1829.242188 699.03125 L 1829.242188 748.398438 C 1829.242188 756.664062 1827.027344 763.011719 1822.628906 767.410156 C 1818.257812 771.78125 1811.941406 773.964844 1803.671875 773.964844 L 1780.230469 773.964844 C 1771.917969 773.964844 1765.554688 771.78125 1761.15625 767.410156 C 1756.789062 763.011719 1754.601562 756.664062 1754.601562 748.398438 Z M 1754.601562 748.398438 " fill-opacity="1" fill-rule="nonzero"/><path fill="#e7e3dd" d="M 1910.9375 657.460938 L 1910.9375 700.804688 C 1910.9375 712.65625 1906.597656 720.464844 1897.949219 724.246094 L 1910.230469 770.777344 C 1910.820312 772.902344 1909.992188 773.964844 1907.75 773.964844 L 1889.265625 773.964844 C 1887.613281 773.964844 1886.609375 773.136719 1886.257812 771.484375 L 1874.328125 726.371094 L 1862.046875 726.371094 L 1862.046875 771.128906 C 1862.046875 773.019531 1861.101562 773.964844 1859.210938 773.964844 L 1840.789062 773.964844 C 1838.855469 773.964844 1837.894531 773.019531 1837.894531 771.128906 L 1837.894531 634.726562 C 1837.894531 632.835938 1838.855469 631.894531 1840.789062 631.894531 L 1885.371094 631.894531 C 1893.753906 631.894531 1900.101562 634.0625 1904.441406 638.386719 C 1908.769531 642.683594 1910.9375 649.046875 1910.9375 657.460938 Z M 1862.046875 702.929688 L 1879.640625 702.929688 C 1884.394531 702.929688 1886.789062 700.550781 1886.789062 695.785156 L 1886.789062 662.421875 C 1886.789062 657.699219 1884.394531 655.335938 1879.640625 655.335938 L 1862.046875 655.335938 Z M 1862.046875 702.929688 " fill-opacity="1" fill-rule="nonzero"/><path fill="#e7e3dd" d="M 1922.480469 631.894531 L 1940.90625 631.894531 C 1942.792969 631.894531 1943.738281 632.835938 1943.738281 634.726562 L 1943.738281 771.128906 C 1943.738281 773.019531 1942.792969 773.964844 1940.90625 773.964844 L 1922.480469 773.964844 C 1920.546875 773.964844 1919.589844 773.019531 1919.589844 771.128906 L 1919.589844 634.726562 C 1919.589844 632.835938 1920.546875 631.894531 1922.480469 631.894531 Z M 1922.480469 631.894531 " fill-opacity="1" fill-rule="nonzero"/><path fill="#e7e3dd" d="M 1952.441406 771.128906 L 1952.441406 634.726562 C 1952.441406 632.835938 1953.402344 631.894531 1955.335938 631.894531 L 1997.910156 631.894531 C 2006.324219 631.894531 2012.699219 634.078125 2017.042969 638.449219 C 2021.367188 642.816406 2023.535156 649.222656 2023.535156 657.636719 L 2023.535156 748.398438 C 2023.535156 756.664062 2021.367188 763.011719 2017.042969 767.410156 C 2012.699219 771.78125 2006.324219 773.964844 1997.910156 773.964844 L 1955.335938 773.964844 C 1953.402344 773.964844 1952.441406 773.019531 1952.441406 771.128906 Z M 1976.59375 750.523438 L 1992.949219 750.523438 C 1997.703125 750.523438 2000.09375 748.160156 2000.09375 743.4375 L 2000.09375 662.597656 C 2000.09375 657.757812 1997.703125 655.335938 1992.949219 655.335938 L 1976.59375 655.335938 Z M 1976.59375 750.523438 " fill-opacity="1" fill-rule="nonzero"/><path fill="#e7e3dd" d="M 2106.464844 631.894531 L 2129.90625 631.894531 C 2132.269531 631.894531 2133.449219 633.074219 2133.449219 635.4375 L 2133.449219 770.421875 C 2133.449219 772.785156 2132.269531 773.964844 2129.90625 773.964844 L 2113.375 773.964844 C 2111.011719 773.964844 2109.832031 772.785156 2109.832031 770.421875 L 2109.832031 690.46875 L 2108.589844 690.46875 L 2090.996094 770.777344 C 2090.523438 772.902344 2089.222656 773.964844 2087.097656 773.964844 L 2078.359375 773.964844 C 2076.351562 773.964844 2075.050781 772.902344 2074.460938 770.777344 L 2056.921875 690.46875 L 2055.625 690.46875 L 2055.625 770.421875 C 2055.625 772.785156 2054.441406 773.964844 2052.082031 773.964844 L 2035.785156 773.964844 C 2033.378906 773.964844 2032.179688 772.785156 2032.179688 770.421875 L 2032.179688 635.4375 C 2032.179688 633.074219 2033.378906 631.894531 2035.785156 631.894531 L 2059.226562 631.894531 C 2061.351562 631.894531 2062.652344 632.957031 2063.125 635.082031 L 2082.84375 723.539062 L 2102.566406 635.082031 C 2103.160156 632.957031 2104.457031 631.894531 2106.464844 631.894531 Z M 2106.464844 631.894531 " fill-opacity="1" fill-rule="nonzero"/><path fill="#e7e3dd" d="M 2145.007812 631.894531 L 2163.429688 631.894531 C 2165.320312 631.894531 2166.265625 632.835938 2166.265625 634.726562 L 2166.265625 771.128906 C 2166.265625 773.019531 2165.320312 773.964844 2163.429688 773.964844 L 2145.007812 773.964844 C 2143.074219 773.964844 2142.113281 773.019531 2142.113281 771.128906 L 2142.113281 634.726562 C 2142.113281 632.835938 2143.074219 631.894531 2145.007812 631.894531 Z M 2145.007812 631.894531 " fill-opacity="1" fill-rule="nonzero"/><path fill="#e7e3dd" d="M 2229.527344 631.894531 L 2248.011719 631.894531 C 2249.898438 631.894531 2250.84375 632.835938 2250.84375 634.726562 L 2250.84375 771.128906 C 2250.84375 773.019531 2249.898438 773.964844 2248.011719 773.964844 L 2230.414062 773.964844 C 2228.761719 773.964844 2227.699219 773.199219 2227.226562 771.664062 L 2200.0625 695.785156 L 2199.117188 695.785156 L 2199.117188 771.128906 C 2199.117188 773.019531 2198.171875 773.964844 2196.285156 773.964844 L 2177.859375 773.964844 C 2175.925781 773.964844 2174.964844 773.019531 2174.964844 771.128906 L 2174.964844 634.726562 C 2174.964844 632.835938 2175.925781 631.894531 2177.859375 631.894531 L 2195.398438 631.894531 C 2197.050781 631.894531 2198.113281 632.660156 2198.585938 634.195312 L 2225.628906 709.660156 L 2226.695312 709.660156 L 2226.695312 634.726562 C 2226.695312 632.835938 2227.636719 631.894531 2229.527344 631.894531 Z M 2229.527344 631.894531 " fill-opacity="1" fill-rule="nonzero"/><path fill="#e7e3dd" d="M 2259.5 771.128906 L 2259.5 634.726562 C 2259.5 632.835938 2260.460938 631.894531 2262.394531 631.894531 L 2304.96875 631.894531 C 2313.382812 631.894531 2319.761719 634.078125 2324.101562 638.449219 C 2328.425781 642.816406 2330.597656 649.222656 2330.597656 657.636719 L 2330.597656 748.398438 C 2330.597656 756.664062 2328.425781 763.011719 2324.101562 767.410156 C 2319.761719 771.78125 2313.382812 773.964844 2304.96875 773.964844 L 2262.394531 773.964844 C 2260.460938 773.964844 2259.5 773.019531 2259.5 771.128906 Z M 2283.652344 750.523438 L 2300.007812 750.523438 C 2304.761719 750.523438 2307.15625 748.160156 2307.15625 743.4375 L 2307.15625 662.597656 C 2307.15625 657.757812 2304.761719 655.335938 2300.007812 655.335938 L 2283.652344 655.335938 Z M 2283.652344 750.523438 " fill-opacity="1" fill-rule="nonzero"/><path fill="#e7e3dd" d="M 2339.242188 770.421875 L 2339.242188 754.066406 C 2339.242188 751.703125 2340.4375 750.523438 2342.84375 750.523438 L 2358.964844 750.523438 C 2361.324219 750.523438 2362.507812 751.703125 2362.507812 754.066406 L 2362.507812 770.421875 C 2362.507812 772.785156 2361.324219 773.964844 2358.964844 773.964844 L 2342.84375 773.964844 C 2340.4375 773.964844 2339.242188 772.785156 2339.242188 770.421875 Z M 2339.242188 770.421875 " fill-opacity="1" fill-rule="nonzero"/><g fill="#0a0a0a" fill-opacity="1"><g transform="translate(108.988938, 402.827117)"><g/></g></g><g fill="#0a0a0a" fill-opacity="1"><g transform="translate(145.461102, 402.827117)"><g><path d="M 43.515625 1.921875 C 32.628906 1.921875 23.75 -0.742188 16.875 -6.078125 C 10 -11.410156 6.5625 -19.726562 6.5625 -31.03125 L 6.71875 -34.234375 L 21.28125 -34.234375 L 21.109375 -30.875 C 21.109375 -24.363281 23.109375 -19.425781 27.109375 -16.0625 C 31.109375 -12.707031 36.363281 -11.03125 42.875 -11.03125 C 50.226562 -11.03125 55.90625 -12.601562 59.90625 -15.75 C 63.90625 -18.894531 65.90625 -23.40625 65.90625 -29.28125 C 65.90625 -33.21875 64.8125 -36.441406 62.625 -38.953125 C 60.4375 -41.460938 57.71875 -43.460938 54.46875 -44.953125 C 51.21875 -46.441406 46.765625 -48.09375 41.109375 -49.90625 C 34.179688 -52.25 28.582031 -54.488281 24.3125 -56.625 C 20.050781 -58.757812 16.398438 -61.878906 13.359375 -65.984375 C 10.316406 -70.085938 8.796875 -75.5 8.796875 -82.21875 C 8.796875 -91.820312 12.046875 -99.128906 18.546875 -104.140625 C 25.054688 -109.148438 33.429688 -111.65625 43.671875 -111.65625 C 53.910156 -111.65625 62.203125 -109.125 68.546875 -104.0625 C 74.890625 -99 78.0625 -91.238281 78.0625 -80.78125 L 78.0625 -78.859375 L 63.5 -78.859375 L 63.5 -81.265625 C 63.5 -86.703125 61.660156 -90.96875 57.984375 -94.0625 C 54.304688 -97.15625 49.640625 -98.703125 43.984375 -98.703125 C 37.910156 -98.703125 33.003906 -97.394531 29.265625 -94.78125 C 25.535156 -92.164062 23.671875 -88.351562 23.671875 -83.34375 C 23.671875 -79.613281 24.738281 -76.546875 26.875 -74.140625 C 29.007812 -71.742188 31.675781 -69.828125 34.875 -68.390625 C 38.070312 -66.953125 42.441406 -65.320312 47.984375 -63.5 C 55.023438 -61.15625 60.703125 -58.941406 65.015625 -56.859375 C 69.335938 -54.785156 73.019531 -51.695312 76.0625 -47.59375 C 79.101562 -43.488281 80.625 -38.179688 80.625 -31.671875 C 80.625 -19.941406 77.289062 -11.410156 70.625 -6.078125 C 63.957031 -0.742188 54.921875 1.921875 43.515625 1.921875 Z M 43.515625 1.921875 "/></g></g></g><g fill="#0a0a0a" fill-opacity="1"><g transform="translate(232.959045, 402.827117)"><g><path d="M 9.921875 -109.734375 L 31.359375 -109.734375 L 50.703125 -37.75 C 51.554688 -34.445312 52.328125 -29.96875 53.015625 -24.3125 C 53.710938 -18.664062 54.171875 -14.9375 54.390625 -13.125 L 55.03125 -13.125 C 55.132812 -14.9375 55.53125 -18.691406 56.21875 -24.390625 C 56.914062 -30.097656 57.691406 -34.550781 58.546875 -37.75 L 78.0625 -109.734375 L 99.34375 -109.734375 L 99.34375 0 L 85.265625 0 L 85.265625 -79.671875 C 85.265625 -81.265625 85.421875 -84.140625 85.734375 -88.296875 C 86.054688 -92.460938 86.273438 -95.238281 86.390625 -96.625 L 85.75 -96.625 C 85.425781 -95.238281 84.835938 -92.460938 83.984375 -88.296875 C 83.128906 -84.140625 82.488281 -81.265625 82.0625 -79.671875 L 60.140625 0 L 47.515625 0 L 25.59375 -79.671875 C 24.957031 -82.328125 24.316406 -85.441406 23.671875 -89.015625 C 23.035156 -92.585938 22.554688 -95.125 22.234375 -96.625 L 21.59375 -96.625 C 21.695312 -95.125 21.851562 -92.585938 22.0625 -89.015625 C 22.28125 -85.441406 22.445312 -82.328125 22.5625 -79.671875 L 22.5625 0 L 9.921875 0 Z M 9.921875 -109.734375 "/></g></g></g><g fill="#0a0a0a" fill-opacity="1"><g transform="translate(342.21151, 402.827117)"><g><path d="M 34.71875 -109.734375 L 52.796875 -109.734375 L 87.65625 0 L 72.46875 0 L 64.953125 -24.46875 L 21.4375 -24.46875 L 13.921875 0 L -0.15625 0 Z M 60.953125 -37.265625 L 46.078125 -86.0625 C 45.648438 -87.550781 45.140625 -89.707031 44.546875 -92.53125 C 43.960938 -95.363281 43.617188 -97.257812 43.515625 -98.21875 L 42.875 -98.21875 C 42.769531 -97.257812 42.421875 -95.363281 41.828125 -92.53125 C 41.242188 -89.707031 40.738281 -87.550781 40.3125 -86.0625 L 25.28125 -37.265625 Z M 60.953125 -37.265625 "/></g></g></g><g fill="#0a0a0a" fill-opacity="1"><g transform="translate(429.709453, 402.827117)"><g><path d="M 11.203125 -109.734375 L 55.34375 -109.734375 C 65.90625 -109.734375 74.007812 -106.988281 79.65625 -101.5 C 85.3125 -96.007812 88.140625 -88.625 88.140625 -79.34375 C 88.140625 -72.519531 86.429688 -66.597656 83.015625 -61.578125 C 79.609375 -56.566406 74.8125 -53.050781 68.625 -51.03125 L 90.703125 0 L 75.03125 0 L 54.703125 -48.46875 L 25.28125 -48.46875 L 25.28125 0 L 11.203125 0 Z M 54.875 -61.265625 C 60.414062 -61.265625 64.890625 -62.914062 68.296875 -66.21875 C 71.710938 -69.53125 73.421875 -73.90625 73.421875 -79.34375 C 73.421875 -84.882812 71.820312 -89.203125 68.625 -92.296875 C 65.425781 -95.390625 60.84375 -96.9375 54.875 -96.9375 L 25.28125 -96.9375 L 25.28125 -61.265625 Z M 54.875 -61.265625 "/></g></g></g><g fill="#0a0a0a" fill-opacity="1"><g transform="translate(524.405556, 402.827117)"><g><path d="M 32.953125 -96.9375 L 3.046875 -96.9375 L 3.046875 -109.734375 L 76.9375 -109.734375 L 76.9375 -96.9375 L 47.03125 -96.9375 L 47.03125 0 L 32.953125 0 Z M 32.953125 -96.9375 "/></g></g></g><g fill="#0a0a0a" fill-opacity="1"><g transform="translate(604.545342, 402.827117)"><g><path d="M 10.234375 -17.28125 L 26.234375 -17.28125 L 26.234375 0 L 10.234375 0 Z M 10.234375 -17.28125 "/></g></g></g><g fill="#0a0a0a" fill-opacity="1"><g transform="translate(58.06549, 817.758773)"><g/></g></g><g fill="#0a0a0a" fill-opacity="1"><g transform="translate(94.474874, 817.758773)"><g/></g></g><g fill="#0a0a0a" fill-opacity="1"><g transform="translate(130.892656, 817.758773)"><g><path d="M 43.4375 1.921875 C 32.582031 1.921875 23.71875 -0.738281 16.84375 -6.0625 C 9.976562 -11.382812 6.546875 -19.691406 6.546875 -30.984375 L 6.703125 -34.171875 L 21.234375 -34.171875 L 21.078125 -30.828125 C 21.078125 -24.328125 23.070312 -19.398438 27.0625 -16.046875 C 31.0625 -12.691406 36.304688 -11.015625 42.796875 -11.015625 C 50.140625 -11.015625 55.804688 -12.582031 59.796875 -15.71875 C 63.796875 -18.863281 65.796875 -23.363281 65.796875 -29.21875 C 65.796875 -33.164062 64.703125 -36.390625 62.515625 -38.890625 C 60.335938 -41.390625 57.625 -43.382812 54.375 -44.875 C 51.132812 -46.363281 46.691406 -48.015625 41.046875 -49.828125 C 34.117188 -52.171875 28.523438 -54.40625 24.265625 -56.53125 C 20.015625 -58.664062 16.367188 -61.78125 13.328125 -65.875 C 10.296875 -69.976562 8.78125 -75.382812 8.78125 -82.09375 C 8.78125 -91.664062 12.023438 -98.953125 18.515625 -103.953125 C 25.015625 -108.960938 33.375 -111.46875 43.59375 -111.46875 C 53.820312 -111.46875 62.101562 -108.9375 68.4375 -103.875 C 74.769531 -98.820312 77.9375 -91.082031 77.9375 -80.65625 L 77.9375 -78.734375 L 63.40625 -78.734375 L 63.40625 -81.125 C 63.40625 -86.5625 61.566406 -90.820312 57.890625 -93.90625 C 54.210938 -96.988281 49.554688 -98.53125 43.921875 -98.53125 C 37.847656 -98.53125 32.945312 -97.226562 29.21875 -94.625 C 25.5 -92.019531 23.640625 -88.210938 23.640625 -83.203125 C 23.640625 -79.472656 24.703125 -76.410156 26.828125 -74.015625 C 28.960938 -71.617188 31.625 -69.703125 34.8125 -68.265625 C 38.007812 -66.828125 42.375 -65.207031 47.90625 -63.40625 C 54.9375 -61.0625 60.609375 -58.847656 64.921875 -56.765625 C 69.234375 -54.691406 72.90625 -51.601562 75.9375 -47.5 C 78.96875 -43.40625 80.484375 -38.113281 80.484375 -31.625 C 80.484375 -19.90625 77.15625 -11.382812 70.5 -6.0625 C 63.851562 -0.738281 54.832031 1.921875 43.4375 1.921875 Z M 43.4375 1.921875 "/></g></g></g><g fill="#0a0a0a" fill-opacity="1"><g transform="translate(218.243222, 817.758773)"><g><path d="M 47.265625 1.921875 C 35.878906 1.921875 27.015625 -1.296875 20.671875 -7.734375 C 14.335938 -14.179688 11.171875 -23.472656 11.171875 -35.609375 L 11.171875 -109.5625 L 25.234375 -109.5625 L 25.234375 -34.8125 C 25.234375 -27.144531 27.175781 -21.257812 31.0625 -17.15625 C 34.945312 -13.0625 40.347656 -11.015625 47.265625 -11.015625 C 54.191406 -11.015625 59.597656 -13.0625 63.484375 -17.15625 C 67.367188 -21.257812 69.3125 -27.144531 69.3125 -34.8125 L 69.3125 -109.5625 L 83.359375 -109.5625 L 83.359375 -35.609375 C 83.359375 -23.472656 80.191406 -14.179688 73.859375 -7.734375 C 67.523438 -1.296875 58.660156 1.921875 47.265625 1.921875 Z M 47.265625 1.921875 "/></g></g></g><g fill="#0a0a0a" fill-opacity="1"><g transform="translate(312.779853, 817.758773)"><g><path d="M 43.4375 1.921875 C 32.582031 1.921875 23.71875 -0.738281 16.84375 -6.0625 C 9.976562 -11.382812 6.546875 -19.691406 6.546875 -30.984375 L 6.703125 -34.171875 L 21.234375 -34.171875 L 21.078125 -30.828125 C 21.078125 -24.328125 23.070312 -19.398438 27.0625 -16.046875 C 31.0625 -12.691406 36.304688 -11.015625 42.796875 -11.015625 C 50.140625 -11.015625 55.804688 -12.582031 59.796875 -15.71875 C 63.796875 -18.863281 65.796875 -23.363281 65.796875 -29.21875 C 65.796875 -33.164062 64.703125 -36.390625 62.515625 -38.890625 C 60.335938 -41.390625 57.625 -43.382812 54.375 -44.875 C 51.132812 -46.363281 46.691406 -48.015625 41.046875 -49.828125 C 34.117188 -52.171875 28.523438 -54.40625 24.265625 -56.53125 C 20.015625 -58.664062 16.367188 -61.78125 13.328125 -65.875 C 10.296875 -69.976562 8.78125 -75.382812 8.78125 -82.09375 C 8.78125 -91.664062 12.023438 -98.953125 18.515625 -103.953125 C 25.015625 -108.960938 33.375 -111.46875 43.59375 -111.46875 C 53.820312 -111.46875 62.101562 -108.9375 68.4375 -103.875 C 74.769531 -98.820312 77.9375 -91.082031 77.9375 -80.65625 L 77.9375 -78.734375 L 63.40625 -78.734375 L 63.40625 -81.125 C 63.40625 -86.5625 61.566406 -90.820312 57.890625 -93.90625 C 54.210938 -96.988281 49.554688 -98.53125 43.921875 -98.53125 C 37.847656 -98.53125 32.945312 -97.226562 29.21875 -94.625 C 25.5 -92.019531 23.640625 -88.210938 23.640625 -83.203125 C 23.640625 -79.472656 24.703125 -76.410156 26.828125 -74.015625 C 28.960938 -71.617188 31.625 -69.703125 34.8125 -68.265625 C 38.007812 -66.828125 42.375 -65.207031 47.90625 -63.40625 C 54.9375 -61.0625 60.609375 -58.847656 64.921875 -56.765625 C 69.234375 -54.691406 72.90625 -51.601562 75.9375 -47.5 C 78.96875 -43.40625 80.484375 -38.113281 80.484375 -31.625 C 80.484375 -19.90625 77.15625 -11.382812 70.5 -6.0625 C 63.851562 -0.738281 54.832031 1.921875 43.4375 1.921875 Z M 43.4375 1.921875 "/></g></g></g><g fill="#0a0a0a" fill-opacity="1"><g transform="translate(400.130418, 817.758773)"><g><path d="M 32.90625 -96.78125 L 3.03125 -96.78125 L 3.03125 -109.5625 L 76.8125 -109.5625 L 76.8125 -96.78125 L 46.953125 -96.78125 L 46.953125 0 L 32.90625 0 Z M 32.90625 -96.78125 "/></g></g></g><g fill="#0a0a0a" fill-opacity="1"><g transform="translate(480.135241, 817.758773)"><g><path d="M 34.65625 -109.5625 L 52.703125 -109.5625 L 87.515625 0 L 72.34375 0 L 64.84375 -24.4375 L 21.40625 -24.4375 L 13.890625 0 L -0.15625 0 Z M 60.84375 -37.203125 L 46 -85.921875 C 45.570312 -87.410156 45.0625 -89.566406 44.46875 -92.390625 C 43.882812 -95.210938 43.539062 -97.101562 43.4375 -98.0625 L 42.796875 -98.0625 C 42.691406 -97.101562 42.347656 -95.210938 41.765625 -92.390625 C 41.179688 -89.566406 40.675781 -87.410156 40.25 -85.921875 L 25.234375 -37.203125 Z M 60.84375 -37.203125 "/></g></g></g><g fill="#0a0a0a" fill-opacity="1"><g transform="translate(567.485818, 817.758773)"><g><path d="M 11.171875 -109.5625 L 25.234375 -109.5625 L 25.234375 0 L 11.171875 0 Z M 11.171875 -109.5625 "/></g></g></g><g fill="#0a0a0a" fill-opacity="1"><g transform="translate(603.89519, 817.758773)"><g><path d="M 11.171875 -109.5625 L 23.3125 -109.5625 L 64.046875 -40.71875 C 65.003906 -39.019531 66.253906 -36.4375 67.796875 -32.96875 C 69.335938 -29.507812 70.320312 -27.195312 70.75 -26.03125 L 71.234375 -26.1875 C 71.234375 -27.363281 71.148438 -29.441406 70.984375 -32.421875 C 70.828125 -35.398438 70.75 -38.164062 70.75 -40.71875 L 70.75 -109.5625 L 83.359375 -109.5625 L 83.359375 0 L 71.703125 0 L 30.65625 -69.796875 C 29.488281 -71.710938 28.132812 -74.375 26.59375 -77.78125 C 25.050781 -81.1875 24.066406 -83.421875 23.640625 -84.484375 L 23.15625 -84.328125 C 23.257812 -83.253906 23.390625 -81.253906 23.546875 -78.328125 C 23.710938 -75.398438 23.796875 -72.554688 23.796875 -69.796875 L 23.796875 0 L 11.171875 0 Z M 11.171875 -109.5625 "/></g></g></g><g fill="#0a0a0a" fill-opacity="1"><g transform="translate(698.431845, 817.758773)"><g><path d="M 34.65625 -109.5625 L 52.703125 -109.5625 L 87.515625 0 L 72.34375 0 L 64.84375 -24.4375 L 21.40625 -24.4375 L 13.890625 0 L -0.15625 0 Z M 60.84375 -37.203125 L 46 -85.921875 C 45.570312 -87.410156 45.0625 -89.566406 44.46875 -92.390625 C 43.882812 -95.210938 43.539062 -97.101562 43.4375 -98.0625 L 42.796875 -98.0625 C 42.691406 -97.101562 42.347656 -95.210938 41.765625 -92.390625 C 41.179688 -89.566406 40.675781 -87.410156 40.25 -85.921875 L 25.234375 -37.203125 Z M 60.84375 -37.203125 "/></g></g></g><g fill="#0a0a0a" fill-opacity="1"><g transform="translate(785.782376, 817.758773)"><g><path d="M 10.375 -109.5625 L 51.90625 -109.5625 C 60.101562 -109.5625 66.863281 -107.082031 72.1875 -102.125 C 77.507812 -97.175781 80.171875 -90.707031 80.171875 -82.71875 C 80.171875 -76.65625 78.597656 -71.359375 75.453125 -66.828125 C 72.316406 -62.304688 68.300781 -59.195312 63.40625 -57.5 L 63.40625 -56.859375 C 69.039062 -55.148438 73.664062 -51.789062 77.28125 -46.78125 C 80.90625 -41.78125 82.71875 -35.875 82.71875 -29.0625 C 82.71875 -23.101562 81.332031 -17.941406 78.5625 -13.578125 C 75.800781 -9.210938 72.078125 -5.859375 67.390625 -3.515625 C 62.710938 -1.171875 57.550781 0 51.90625 0 L 10.375 0 Z M 47.75 -62.4375 C 52.96875 -62.4375 57.226562 -64.113281 60.53125 -67.46875 C 63.832031 -70.820312 65.484375 -74.894531 65.484375 -79.6875 C 65.484375 -85.332031 63.988281 -89.59375 61 -92.46875 C 58.019531 -95.34375 53.921875 -96.78125 48.703125 -96.78125 L 24.4375 -96.78125 L 24.4375 -62.4375 Z M 49.984375 -12.78125 C 55.304688 -12.78125 59.644531 -14.375 63 -17.5625 C 66.351562 -20.757812 68.03125 -25.234375 68.03125 -30.984375 C 68.03125 -36.085938 66.273438 -40.476562 62.765625 -44.15625 C 59.253906 -47.832031 54.675781 -49.671875 49.03125 -49.671875 L 24.4375 -49.671875 L 24.4375 -12.78125 Z M 49.984375 -12.78125 "/></g></g></g><g fill="#0a0a0a" fill-opacity="1"><g transform="translate(873.132953, 817.758773)"><g><path d="M 11.171875 -109.5625 L 25.234375 -109.5625 L 25.234375 -12.78125 L 69.953125 -12.78125 L 69.953125 0 L 11.171875 0 Z M 11.171875 -109.5625 "/></g></g></g><g fill="#0a0a0a" fill-opacity="1"><g transform="translate(945.951744, 817.758773)"><g><path d="M 11.171875 -109.5625 L 78.734375 -109.5625 L 78.734375 -96.78125 L 25.234375 -96.78125 L 25.234375 -62.4375 L 71.703125 -62.4375 L 71.703125 -49.671875 L 25.234375 -49.671875 L 25.234375 -12.78125 L 79.6875 -12.78125 L 79.6875 0 L 11.171875 0 Z M 11.171875 -109.5625 "/></g></g></g><g fill="#0a0a0a" fill-opacity="1"><g transform="translate(1033.302275, 817.758773)"><g><path d="M 10.21875 -17.25 L 26.1875 -17.25 L 26.1875 0 L 10.21875 0 Z M 10.21875 -17.25 "/></g></g></g><g fill="#0a0a0a" fill-opacity="1"><g transform="translate(108.988938, 1233.393139)"><g/></g></g><g fill="#0a0a0a" fill-opacity="1"><g transform="translate(145.402521, 1233.393139)"><g><path d="M 43.4375 1.921875 C 32.582031 1.921875 23.71875 -0.738281 16.84375 -6.0625 C 9.976562 -11.382812 6.546875 -19.691406 6.546875 -30.984375 L 6.703125 -34.171875 L 21.234375 -34.171875 L 21.078125 -30.828125 C 21.078125 -24.328125 23.070312 -19.398438 27.0625 -16.046875 C 31.0625 -12.691406 36.304688 -11.015625 42.796875 -11.015625 C 50.140625 -11.015625 55.804688 -12.582031 59.796875 -15.71875 C 63.796875 -18.863281 65.796875 -23.363281 65.796875 -29.21875 C 65.796875 -33.164062 64.703125 -36.390625 62.515625 -38.890625 C 60.335938 -41.390625 57.625 -43.382812 54.375 -44.875 C 51.132812 -46.363281 46.691406 -48.015625 41.046875 -49.828125 C 34.117188 -52.171875 28.523438 -54.40625 24.265625 -56.53125 C 20.015625 -58.664062 16.367188 -61.78125 13.328125 -65.875 C 10.296875 -69.976562 8.78125 -75.382812 8.78125 -82.09375 C 8.78125 -91.664062 12.023438 -98.953125 18.515625 -103.953125 C 25.015625 -108.960938 33.375 -111.46875 43.59375 -111.46875 C 53.820312 -111.46875 62.101562 -108.9375 68.4375 -103.875 C 74.769531 -98.820312 77.9375 -91.082031 77.9375 -80.65625 L 77.9375 -78.734375 L 63.40625 -78.734375 L 63.40625 -81.125 C 63.40625 -86.5625 61.566406 -90.820312 57.890625 -93.90625 C 54.210938 -96.988281 49.554688 -98.53125 43.921875 -98.53125 C 37.847656 -98.53125 32.945312 -97.226562 29.21875 -94.625 C 25.5 -92.019531 23.640625 -88.210938 23.640625 -83.203125 C 23.640625 -79.472656 24.703125 -76.410156 26.828125 -74.015625 C 28.960938 -71.617188 31.625 -69.703125 34.8125 -68.265625 C 38.007812 -66.828125 42.375 -65.207031 47.90625 -63.40625 C 54.9375 -61.0625 60.609375 -58.847656 64.921875 -56.765625 C 69.234375 -54.691406 72.90625 -51.601562 75.9375 -47.5 C 78.96875 -43.40625 80.484375 -38.113281 80.484375 -31.625 C 80.484375 -19.90625 77.15625 -11.382812 70.5 -6.0625 C 63.851562 -0.738281 54.832031 1.921875 43.4375 1.921875 Z M 43.4375 1.921875 "/></g></g></g><g fill="#0a0a0a" fill-opacity="1"><g transform="translate(232.753086, 1233.393139)"><g><path d="M 49.828125 1.921875 C 21.078125 1.921875 6.703125 -16.976562 6.703125 -54.78125 C 6.703125 -92.570312 21.078125 -111.46875 49.828125 -111.46875 C 61.429688 -111.46875 70.691406 -107.925781 77.609375 -100.84375 C 84.535156 -93.769531 88 -83.472656 88 -69.953125 L 73.625 -69.953125 C 73.625 -79.316406 71.492188 -86.421875 67.234375 -91.265625 C 62.972656 -96.109375 57.171875 -98.53125 49.828125 -98.53125 C 40.242188 -98.53125 33.109375 -95.226562 28.421875 -88.625 C 23.742188 -82.03125 21.40625 -72.078125 21.40625 -58.765625 L 21.40625 -50.78125 C 21.40625 -37.476562 23.742188 -27.523438 28.421875 -20.921875 C 33.109375 -14.316406 40.242188 -11.015625 49.828125 -11.015625 C 57.390625 -11.015625 63.328125 -13.410156 67.640625 -18.203125 C 71.953125 -22.992188 74.109375 -30.019531 74.109375 -39.28125 L 88 -39.28125 C 88 -25.65625 84.5625 -15.378906 77.6875 -8.453125 C 70.820312 -1.535156 61.535156 1.921875 49.828125 1.921875 Z M 49.828125 1.921875 "/></g></g></g><g fill="#0a0a0a" fill-opacity="1"><g transform="translate(327.289717, 1233.393139)"><g><path d="M 34.65625 -109.5625 L 52.703125 -109.5625 L 87.515625 0 L 72.34375 0 L 64.84375 -24.4375 L 21.40625 -24.4375 L 13.890625 0 L -0.15625 0 Z M 60.84375 -37.203125 L 46 -85.921875 C 45.570312 -87.410156 45.0625 -89.566406 44.46875 -92.390625 C 43.882812 -95.210938 43.539062 -97.101562 43.4375 -98.0625 L 42.796875 -98.0625 C 42.691406 -97.101562 42.347656 -95.210938 41.765625 -92.390625 C 41.179688 -89.566406 40.675781 -87.410156 40.25 -85.921875 L 25.234375 -37.203125 Z M 60.84375 -37.203125 "/></g></g></g><g fill="#0a0a0a" fill-opacity="1"><g transform="translate(414.640283, 1233.393139)"><g><path d="M 11.171875 -109.5625 L 25.234375 -109.5625 L 25.234375 -12.78125 L 69.953125 -12.78125 L 69.953125 0 L 11.171875 0 Z M 11.171875 -109.5625 "/></g></g></g><g fill="#0a0a0a" fill-opacity="1"><g transform="translate(487.459028, 1233.393139)"><g><path d="M 34.65625 -109.5625 L 52.703125 -109.5625 L 87.515625 0 L 72.34375 0 L 64.84375 -24.4375 L 21.40625 -24.4375 L 13.890625 0 L -0.15625 0 Z M 60.84375 -37.203125 L 46 -85.921875 C 45.570312 -87.410156 45.0625 -89.566406 44.46875 -92.390625 C 43.882812 -95.210938 43.539062 -97.101562 43.4375 -98.0625 L 42.796875 -98.0625 C 42.691406 -97.101562 42.347656 -95.210938 41.765625 -92.390625 C 41.179688 -89.566406 40.675781 -87.410156 40.25 -85.921875 L 25.234375 -37.203125 Z M 60.84375 -37.203125 "/></g></g></g><g fill="#0a0a0a" fill-opacity="1"><g transform="translate(574.809605, 1233.393139)"><g><path d="M 10.375 -109.5625 L 51.90625 -109.5625 C 60.101562 -109.5625 66.863281 -107.082031 72.1875 -102.125 C 77.507812 -97.175781 80.171875 -90.707031 80.171875 -82.71875 C 80.171875 -76.65625 78.597656 -71.359375 75.453125 -66.828125 C 72.316406 -62.304688 68.300781 -59.195312 63.40625 -57.5 L 63.40625 -56.859375 C 69.039062 -55.148438 73.664062 -51.789062 77.28125 -46.78125 C 80.90625 -41.78125 82.71875 -35.875 82.71875 -29.0625 C 82.71875 -23.101562 81.332031 -17.941406 78.5625 -13.578125 C 75.800781 -9.210938 72.078125 -5.859375 67.390625 -3.515625 C 62.710938 -1.171875 57.550781 0 51.90625 0 L 10.375 0 Z M 47.75 -62.4375 C 52.96875 -62.4375 57.226562 -64.113281 60.53125 -67.46875 C 63.832031 -70.820312 65.484375 -74.894531 65.484375 -79.6875 C 65.484375 -85.332031 63.988281 -89.59375 61 -92.46875 C 58.019531 -95.34375 53.921875 -96.78125 48.703125 -96.78125 L 24.4375 -96.78125 L 24.4375 -62.4375 Z M 49.984375 -12.78125 C 55.304688 -12.78125 59.644531 -14.375 63 -17.5625 C 66.351562 -20.757812 68.03125 -25.234375 68.03125 -30.984375 C 68.03125 -36.085938 66.273438 -40.476562 62.765625 -44.15625 C 59.253906 -47.832031 54.675781 -49.671875 49.03125 -49.671875 L 24.4375 -49.671875 L 24.4375 -12.78125 Z M 49.984375 -12.78125 "/></g></g></g><g fill="#0a0a0a" fill-opacity="1"><g transform="translate(662.160183, 1233.393139)"><g><path d="M 11.171875 -109.5625 L 25.234375 -109.5625 L 25.234375 -12.78125 L 69.953125 -12.78125 L 69.953125 0 L 11.171875 0 Z M 11.171875 -109.5625 "/></g></g></g><g fill="#0a0a0a" fill-opacity="1"><g transform="translate(734.978928, 1233.393139)"><g><path d="M 11.171875 -109.5625 L 78.734375 -109.5625 L 78.734375 -96.78125 L 25.234375 -96.78125 L 25.234375 -62.4375 L 71.703125 -62.4375 L 71.703125 -49.671875 L 25.234375 -49.671875 L 25.234375 -12.78125 L 79.6875 -12.78125 L 79.6875 0 L 11.171875 0 Z M 11.171875 -109.5625 "/></g></g></g><g fill="#0a0a0a" fill-opacity="1"><g transform="translate(822.329505, 1233.393139)"><g><path d="M 10.21875 -17.25 L 26.1875 -17.25 L 26.1875 0 L 10.21875 0 Z M 10.21875 -17.25 "/></g></g></g></g></g></g></svg>